<svg xmlns="http://www.w3.org/2000/svg" xmlns:xlink="http://www.w3.org/1999/xlink" version="1.1" id="Layer_1" x="0px" y="0px" viewBox="0 0 512 512" style="enable-background:new 0 0 512 512;" xml:space="preserve">
<style type="text/css">
	.st0{fill:#FFFFFF;}
	.st1{fill:#8ED6FB;}
	.st2{fill:#1C78C0;}
</style>
<g>
	<polygon class="st0" points="256,0 482.2,128 482.2,384 256,512 29.8,384 29.8,128  "/>
	<path class="st1" d="M441.9,375.1l-178.4,101v-78.5l111.2-61.2L441.9,375.1z M454.1,364.1V153.1l-65.2,37.7v135.7L454.1,364.1z    M69.5,375.1l178.4,100.9v-78.5l-111.2-61.1L69.5,375.1z M57.2,364.1V153.1l65.2,37.7v135.7L57.2,364.1z M64.8,139.4l183-103.5v76   l-117.2,64.5l-0.9,0.5L64.8,139.4z M446.4,139.4L263.5,35.9v76l117.1,64.5l0.9,0.5L446.4,139.4z"/>
	<path class="st2" d="M247.8,379.7l-109.6-60.4V199.9l109.6,63.3V379.7z M263.5,379.7l109.6-60.3V199.9l-109.6,63.3V379.7z    M145.5,186l110.1-60.5L365.7,186l-110.1,63.5L145.5,186z"/>
</g>
</svg>